<?xml version="1.0" encoding="utf-8"?>
<!-- Generator: Adobe Illustrator 22.1.0, SVG Export Plug-In . SVG Version: 6.00 Build 0)  -->
<svg version="1.1" id="Layer_1" xmlns="http://www.w3.org/2000/svg" xmlns:xlink="http://www.w3.org/1999/xlink" x="0px" y="0px"
	 viewBox="0 0 464.6 69.9" style="enable-background:new 0 0 464.6 69.9;" xml:space="preserve">
<style type="text/css">
	.st0{fill:none;stroke:#000000;stroke-width:5;}
</style>
<title>logo</title>
<g>
	<path class="st0" d="M53,67.3H24.6c-7.5,0-13.1-1.5-16.7-4.5c-3.6-3-5.4-7.6-5.4-13.9V20.9C2.5,14.6,4.3,10,7.9,7s9.2-4.5,16.7-4.5
		h22.5c0.9-0.1,1.7,0.2,2.4,0.8c0.6,0.7,0.8,1.6,0.8,2.5v10.9c0.1,0.9-0.2,1.8-0.8,2.5c-0.7,0.6-1.6,0.8-2.5,0.8H28.4
		c-1.5-0.1-2.9,0.3-4.1,1.1c-0.9,0.9-1.4,2.1-1.4,3.4v21.5c-0.1,1.2,0.2,2.4,1,3.3c0.8,0.8,2,1.2,3.1,1.1h8.7v-14
		c-0.1-0.9,0.2-1.8,0.8-2.5c0.7-0.6,1.6-0.9,2.5-0.8h14c0.9-0.1,1.8,0.2,2.5,0.8c0.6,0.7,0.9,1.6,0.8,2.5v27.8
		c0.3,1.5-0.7,3-2.2,3.2C53.7,67.4,53.4,67.4,53,67.3L53,67.3z"/>
	<path class="st0" d="M119.4,67.3H77.7c-1.5,0.3-3-0.7-3.2-2.2c-0.1-0.3-0.1-0.7,0-1V5.8c-0.1-0.9,0.2-1.8,0.8-2.5
		c0.7-0.6,1.6-0.8,2.5-0.8h41.8c0.9-0.1,1.8,0.2,2.5,0.8c0.6,0.7,0.8,1.6,0.8,2.5v10.5c0.1,0.9-0.2,1.8-0.8,2.5
		c-0.7,0.6-1.6,0.9-2.5,0.8H94.6v6.9h17.6c0.9-0.1,1.8,0.2,2.5,0.8c0.6,0.7,0.8,1.6,0.8,2.5v9.6c0.3,1.5-0.7,3-2.2,3.2
		c-0.3,0.1-0.7,0.1-1,0H94.6v7.7h24.8c1.5-0.3,3,0.7,3.2,2.2c0.1,0.3,0.1,0.7,0,1v10.5c0.3,1.5-0.7,3-2.2,3.2
		C120.1,67.4,119.7,67.4,119.4,67.3z"/>
	<path class="st0" d="M171.1,67.3h-14.6c-1.5,0.3-3-0.7-3.2-2.2c-0.1-0.3-0.1-0.7,0-1V19.9H140c-0.9,0.1-1.8-0.2-2.5-0.8
		c-0.6-0.7-0.8-1.6-0.8-2.5V5.8c-0.1-0.9,0.2-1.8,0.8-2.5c0.7-0.6,1.6-0.8,2.5-0.8h47.5c0.9-0.1,1.8,0.2,2.5,0.8
		c0.6,0.7,0.8,1.6,0.8,2.5v10.9c0.1,0.9-0.2,1.8-0.8,2.5c-0.7,0.6-1.6,0.8-2.5,0.8h-13.3v44.2c0.3,1.5-0.7,3-2.2,3.2
		C171.7,67.4,171.4,67.4,171.1,67.3z"/>
	<path d="M223.9,67.3H210c-1.5,0.3-3-0.7-3.2-2.2c-0.1-0.3-0.1-0.7,0-1V5.8c-0.1-0.9,0.2-1.8,0.8-2.5c0.7-0.6,1.6-0.8,2.5-0.8h27.5
		c8.1,0,13.7,1.6,16.7,4.9s4.5,7.5,4.5,12.7v11.5c0,5.2-1.5,9.4-4.5,12.7c-3,3.2-8.6,4.9-16.7,4.9h-10.4v14.9c0.3,1.5-0.7,3-2.2,3.2
		C224.6,67.4,224.2,67.4,223.9,67.3L223.9,67.3z M227,19.3v13.6h8.1c1.7,0,2.9-0.5,3.4-1.4c0.6-0.9,0.8-2,0.8-3.1v-4.8
		c0-1.1-0.3-2.1-0.8-3.1c-0.5-0.9-1.7-1.4-3.4-1.4L227,19.3z"/>
	<path d="M292.7,64.1c0.3,1.5-0.7,3-2.2,3.2c-0.3,0.1-0.7,0.1-1,0h-13.2c-1.5,0.3-3-0.7-3.2-2.2c-0.1-0.3-0.1-0.7,0-1V40.3
		c0-2.1,0.3-4.2,0.9-6.2c0.7-2.8,1.6-5.5,2.7-8.2l7.8-20.4c0.3-0.9,0.9-1.7,1.7-2.2c0.9-0.5,1.9-0.8,2.9-0.7h24.2c1,0,2,0.2,2.8,0.7
		c0.8,0.5,1.4,1.3,1.7,2.2l7.8,20.4c1.1,2.7,1.9,5.4,2.7,8.2c0.5,2,0.8,4.1,0.9,6.2v23.8c0.3,1.5-0.7,3-2.2,3.2
		c-0.3,0.1-0.7,0.1-1,0h-13.6c-0.9,0.1-1.9-0.2-2.6-0.8c-0.6-0.7-0.9-1.6-0.9-2.5V51.5h-15.9V64.1z M297.9,21.4l-4.2,13.7h14.1
		l-4.2-13.7c-0.2-0.4-0.4-0.8-0.8-1.2c-0.3-0.2-0.6-0.4-1-0.4h-2.3c-0.3,0-0.7,0.1-0.9,0.4C298.3,20.6,298,21,297.9,21.4z"/>
	<path d="M349.1,67.3c-1.5,0.3-3-0.7-3.2-2.2c-0.1-0.3-0.1-0.7,0-1V53.4c-0.3-1.5,0.7-3,2.2-3.2c0.3-0.1,0.7-0.1,1,0h8.9V19.9h-8.9
		c-0.9,0.1-1.8-0.2-2.5-0.8c-0.6-0.7-0.9-1.6-0.8-2.5V5.8c-0.1-0.9,0.2-1.8,0.7-2.5c0.7-0.6,1.6-0.8,2.5-0.8h38.3
		c0.9-0.1,1.8,0.2,2.5,0.8c0.6,0.7,0.8,1.6,0.8,2.5v10.9c0.1,0.9-0.2,1.8-0.8,2.5c-0.7,0.6-1.6,0.8-2.5,0.8h-8.7v30.2h8.7
		c1.5-0.3,3,0.7,3.2,2.2c0.1,0.3,0.1,0.7,0,1v10.7c0.3,1.5-0.7,3-2.2,3.2c-0.3,0.1-0.7,0.1-1,0H349.1z"/>
	<path d="M442.5,67.3h-30.3c-1.5,0.3-3-0.7-3.2-2.2c-0.1-0.3-0.1-0.7,0-1V5.8c-0.1-0.9,0.2-1.8,0.8-2.5c0.7-0.6,1.6-0.8,2.5-0.8
		h30.3c7.5,0,13.1,1.5,16.7,4.5s5.4,7.6,5.4,13.9V49c0,6.2-1.8,10.9-5.4,13.9C455.6,65.8,450,67.3,442.5,67.3z M429.4,19.7v30.6
		h10.7c1.2,0.1,2.3-0.3,3.2-1.1c0.8-0.9,1.1-2.1,1-3.3V24c0.1-1.2-0.2-2.4-1-3.3c-0.9-0.7-2-1.1-3.2-1L429.4,19.7z"/>
</g>
</svg>
